<?xml version="1.0"?>
<svg xmlns="http://www.w3.org/2000/svg" xmlns:xlink="http://www.w3.org/1999/xlink" xmlns:svgjs="http://svgjs.com/svgjs" version="1.1" width="512" height="512" x="0" y="0" viewBox="0 0 512 512" style="enable-background:new 0 0 512 512" xml:space="preserve" class=""><g><path xmlns="http://www.w3.org/2000/svg" d="m200 48h112v16h-112z" fill="#b3b2b3" data-original="#b3b2b3" style=""/><path xmlns="http://www.w3.org/2000/svg" d="m288 82.56v-50.56h-64v50.56c-95.243 15.318-168 97.877-168 197.44 0 110.457 89.543 200 200 200s200-89.543 200-200c0-99.563-72.757-182.122-168-197.44z" fill="#d7d413" data-original="#e53d5d" style="" class=""/><circle xmlns="http://www.w3.org/2000/svg" cx="256" cy="280" fill="#e5e5e4" r="168" data-original="#e5e5e4" style="" class=""/><path xmlns="http://www.w3.org/2000/svg" d="m248 32h16v80h-16z" fill="#d73d67" data-original="#d73d67" style=""/><path xmlns="http://www.w3.org/2000/svg" d="m320 288h16v72h-16z" fill="#d5a254" data-original="#d5a254" style=""/><path xmlns="http://www.w3.org/2000/svg" d="m320 376h16v16h-16z" fill="#d5a254" data-original="#d5a254" style=""/><path xmlns="http://www.w3.org/2000/svg" d="m264 408h16v16h-16z" fill="#d5a254" data-original="#d5a254" style=""/><g xmlns="http://www.w3.org/2000/svg" fill="#7ba23f"><path d="m192 192h16v16h-16z" fill="#7ba23f" data-original="#7ba23f" style=""/><path d="m248 144h16v16h-16z" fill="#7ba23f" data-original="#7ba23f" style=""/><path d="m312 168h16v16h-16z" fill="#7ba23f" data-original="#7ba23f" style=""/><path d="m200 384h16v16h-16z" fill="#7ba23f" data-original="#7ba23f" style=""/></g><rect xmlns="http://www.w3.org/2000/svg" fill="#b3b2b3" height="135.765" rx="8" transform="matrix(.707 -.707 .707 .707 -61.019 124.686)" width="16" x="112" y="68.118" data-original="#b3b2b3" style=""/><path xmlns="http://www.w3.org/2000/svg" d="m88 104-25.864-5.173a17.584 17.584 0 0 1 -14.136-17.243 17.584 17.584 0 0 1 17.584-17.584 17.584 17.584 0 0 1 17.243 14.136z" fill="#ee5449" data-original="#ee5449" style="" class=""/><path xmlns="http://www.w3.org/2000/svg" d="m280 392h-16a56.412 56.412 0 0 0 -31.354-50.733l-28.224-14.112 7.156-14.31 28.222 14.111a72.324 72.324 0 0 1 40.2 65.044z" fill="#d5a254" data-original="#d5a254" style=""/><path xmlns="http://www.w3.org/2000/svg" d="m160 296h-4a28 28 0 0 1 -28-28 28 28 0 0 1 28-28 28 28 0 0 1 28 28v4z" fill="#fdc01e" data-original="#fdc01e" style="" class=""/><path xmlns="http://www.w3.org/2000/svg" d="m208 296h4a28 28 0 0 0 28-28 28 28 0 0 0 -28-28 28 28 0 0 0 -28 28v4z" fill="#fdc01e" data-original="#fdc01e" style="" class=""/><path xmlns="http://www.w3.org/2000/svg" d="m208 296h4a28 28 0 0 1 28 28 28 28 0 0 1 -28 28 28 28 0 0 1 -28-28v-4z" fill="#fdc01e" data-original="#fdc01e" style="" class=""/><path xmlns="http://www.w3.org/2000/svg" d="m160 296h-4a28 28 0 0 0 -28 28 28 28 0 0 0 28 28 28 28 0 0 0 28-28v-4z" fill="#fdc01e" data-original="#fdc01e" style="" class=""/><circle xmlns="http://www.w3.org/2000/svg" cx="184" cy="296" fill="#f79726" r="24" data-original="#f79726" style=""/><path xmlns="http://www.w3.org/2000/svg" d="m304 264h-4a28 28 0 0 1 -28-28 28 28 0 0 1 28-28 28 28 0 0 1 28 28v4z" fill="#ee5449" data-original="#ee5449" style="" class=""/><path xmlns="http://www.w3.org/2000/svg" d="m352 264h4a28 28 0 0 0 28-28 28 28 0 0 0 -28-28 28 28 0 0 0 -28 28v4z" fill="#ee5449" data-original="#ee5449" style="" class=""/><path xmlns="http://www.w3.org/2000/svg" d="m352 264h4a28 28 0 0 1 28 28 28 28 0 0 1 -28 28 28 28 0 0 1 -28-28v-4z" fill="#ee5449" data-original="#ee5449" style="" class=""/><path xmlns="http://www.w3.org/2000/svg" d="m304 264h-4a28 28 0 0 0 -28 28 28 28 0 0 0 28 28 28 28 0 0 0 28-28v-4z" fill="#ee5449" data-original="#ee5449" style="" class=""/><circle xmlns="http://www.w3.org/2000/svg" cx="328" cy="264" fill="#fdc01e" r="24" data-original="#fdc01e" style="" class=""/></g></svg>
