<?xml version="1.0"?>
<svg xmlns="http://www.w3.org/2000/svg" xmlns:xlink="http://www.w3.org/1999/xlink" xmlns:svgjs="http://svgjs.com/svgjs" version="1.1" width="512" height="512" x="0" y="0" viewBox="0 0 59 59" style="enable-background:new 0 0 512 512" xml:space="preserve" class=""><g><g xmlns="http://www.w3.org/2000/svg" id="Page-1" fill="none" fill-rule="evenodd"><g id="014---Knitting" fill-rule="nonzero"><g fill="#2980ba"><path id="Shape" d="m1 54c-.39894704.0001823-.75983347-.236779-.91824433-.6029275-.15841087-.3661486-.08403446-.7914224.18924433-1.0820725l10.841-11.527c.2439471-.2635919.6105136-.3761193.9603398-.2948023.3498263.0813171.6291779.3439881.7318522.6881521.1026744.344164.0129005.7169561-.235192.9766502l-10.84 11.527c-.18910304.2011237-.45293715.3151261-.729.315z" fill="#9dbd76" data-original="#2980ba" style="" class=""/><path id="Shape" d="m6 59c-.41028398.0001996-.7790622-.2502314-.93018183-.6316706-.15111962-.3814392-.05391528-.8164844.24518183-1.0973294l11.985-11.271c.2596941-.2480925.6324862-.3378664.9766502-.235192.344164.1026743.606835.3820259.6881521.7318522.081317.3498262-.0312104.7163927-.2948023.9603398l-11.985 11.272c-.18552983.1742082-.43050091.2711237-.685.271z" fill="#9dbd76" data-original="#2980ba" style="" class=""/><path id="Shape" d="m41.064 11.381c-.3985275-.0001921-.758896-.2369997-.9172195-.6027289-.1583234-.3657293-.0843734-.79055248.1882195-1.0812711l4.886-5.2c.2441234-.2622606.6099022-.37387125.958855-.29257684.3489528.0812944.6277454.34306878.7308286.68621697s.0147018.71522326-.2316836.97535987l-4.886 5.2c-.189103.2011237-.4529371.3151261-.729.315z" fill="#9dbd76" data-original="#2980ba" style="" class=""/><path id="Shape" d="m47.646 19.85c-.410284.0001996-.7790622-.2502314-.9301818-.6316706-.1511197-.3814392-.0539153-.8164844.2451818-1.0973294l6.174-5.8c.2563221-.2665503.6388204-.3698862.9944975-.268674.3556771.1012123.6264641.3904486.7040477.7520158.0775836.3615673-.0507028.7364351-.3335452.9746582l-6.174 5.8c-.1842693.1730297-.4272291.2698563-.68.271z" fill="#9dbd76" data-original="#2980ba" style="" class=""/></g><circle id="Oval" cx="48" cy="3" fill="#3b97d3" r="3" data-original="#3b97d3" style="" class=""/><circle id="Oval" cx="56" cy="11" fill="#3b97d3" r="3" data-original="#3b97d3" style="" class=""/><path id="Shape" d="m50 59c-.5522847 0-1-.4477153-1-1v-4.13c.0022048-2.1364281 1.7335719-3.8677952 3.87-3.87 1.1398487-.0002091 2.0773145-.8981311 2.126617-2.0369131.0493026-1.1387819-.8070514-2.1143658-1.942617-2.2130869l-6.905-.594c-.5388016-.0603773-.9313456-.5391215-.8849741-1.0793088.0463715-.5401872.5147652-.9450256 1.0559741-.9126912l6.905.594c2.1994273.1941299 3.8569137 2.0842459 3.7621667 4.2901901-.0947469 2.2059443-1.908194 3.9469811-4.1161667 3.9518099-1.032706.0005511-1.8698968.8372944-1.871 1.87v4.13c0 .5522847-.4477153 1-1 1z" fill="#dfd64d" data-original="#df4d60" style="" class=""/><circle id="Oval" cx="30" cy="29" fill="#dfd64d" r="24" data-original="#df4d60" style="" class=""/><path id="Shape" d="m50.77 17c-2.0292296 17.6671754-16.9866693 31.0028277-34.77 31-.22 0-.44 0-.66-.01-1.5161222-1.1679452-2.8859947-2.514315-4.08-4.01-.5235034-.6435706-1.0077158-1.3181285-1.45-2.02-.63506959-.9665129-1.19024373-1.9832173-1.66-3.04-.3-.64-.56-1.29-.8-1.96-.49454012-1.413245-.8561079-2.8695597-1.08-4.35 9.1476254-1.3965198 17.3702117-6.3581154 22.87-13.8 2.9197475-3.9395679 4.9745826-8.4513452 6.03-13.24 1.5754.3485906 3.112773.85100008 4.59 1.5.64.29 1.28.61 1.89.96 1.1541103.62940291 2.2486143 1.36241931 3.27 2.19.6557493.5121328 1.280203 1.0631213 1.87 1.65 1.5559673 1.5191028 2.8952254 3.2453325 3.98 5.13z" fill="#80fb76" data-original="#fb7b76" style="" class=""/><path id="Shape" d="m29.14 18.81c-1.2658463 1.7151461-2.688655 3.308692-4.25 4.76-.49.46-.99.91-1.5 1.33-1.3120302 1.0935933-2.7024184 2.0895925-4.16 2.98-.57.35-1.15.68-1.75.99-1.7918576.9643679-3.6659008 1.7675293-5.6 2.4-2.00477159-3.5364724-3.38179468-7.3934904-4.07-11.4h-.01c.95855839-2.3226846 2.2781692-4.4792865 3.91-6.39.5583196-.6715579 1.1595799-1.3062216 1.8-1.9 1.0400648-1.0003943 2.1716898-1.90100701 3.38-2.69.61-.39 1.23-.76 1.87-1.09 1.3223177-.71332902 2.7125443-1.29286926 4.15-1.73 1.2529698 4.6021871 3.3669508 8.9251594 6.23 12.74z" fill="#ff5364" data-original="#ff5364" style="" class=""/><path id="Shape" d="m53.54 33.66c-.3364108 1.7229309-.8629661 3.4032125-1.57 5.01-.28.64-.59 1.26-.93 1.87-.526892.9751817-1.1287003 1.9079846-1.8 2.79-.519043.7091829-1.0835626 1.3839341-1.69 2.02-1.4801674 1.5971086-3.1726437 2.9833914-5.03 4.12h-.01c-5.1485316-.0646322-10.2218004-1.2450969-14.87-3.46 2.3996107-.8436813 4.6999125-1.9468873 6.86-3.29.69-.43 1.36-.88 2.02-1.37 1.4218725-1.0251751 2.7625186-2.1585393 4.01-3.39.52-.51 1.02-1.03 1.51-1.58 1.3655671-1.5146653 2.5937373-3.1477636 3.67-4.88 2.5235909 1.0028782 5.149154 1.7271714 7.83 2.16z" fill="#ff5364" data-original="#ff5364" style="" class=""/><path id="Shape" d="m46.79 11.87c-1.9629096 18.1769479-17.2477634 31.9905323-35.53 32.11-.5235034-.6435706-1.0077158-1.3181285-1.45-2.02 18.3646116.6655589 33.9253078-13.4015586 35.11-31.74.6557493.5121328 1.280203 1.0631213 1.87 1.65z" fill="#ff5364" data-original="#ff5364" style="" class=""/><path id="Shape" d="m41.65 8.03c-1.1272351 8.2070041-5.0808426 15.7641233-11.18 21.37-6.097436 5.6863733-13.9954931 9.0550786-22.32 9.52-.3-.64-.56-1.29-.8-1.96 8.1030498-.2873828 15.8299792-3.4903655 21.76-9.02 5.927556-5.4622499 9.705211-12.8650348 10.65-20.87.64.29 1.28.61 1.89.96z" fill="#ff5364" data-original="#ff5364" style="" class=""/><path id="Shape" d="m49.24 43.33c-.519043.7091829-1.0835626 1.3839341-1.69 2.02-4.4741083-.0723738-8.8971092-.9637525-13.05-2.63.69-.43 1.36-.88 2.02-1.37 4.0784454 1.4513277 8.3933822 2.1229924 12.72 1.98z" fill="#dfd64d" data-original="#df4d60" style="" class=""/><path id="Shape" d="m19.23 27.88c-.57.35-1.15.68-1.75.99-3.0656059-4.6260215-5.038719-9.8887962-5.77-15.39.5583196-.6715579 1.1595799-1.3062216 1.8-1.9.4972941 5.8296822 2.4653426 11.4379324 5.72 16.3z" fill="#dfd64d" data-original="#df4d60" style="" class=""/><path id="Shape" d="m51.97 38.67c-.28.64-.59 1.26-.93 1.87-3.5717363-.5525205-7.0884196-1.4157977-10.51-2.58.52-.51 1.02-1.03 1.51-1.58 3.248738 1.0081319 6.5678683 1.7735708 9.93 2.29z" fill="#dfd64d" data-original="#df4d60" style="" class=""/><path id="Shape" d="m24.89 23.57c-.49.46-.99.91-1.5 1.33-3.4351531-4.7293531-5.6661701-10.2245195-6.5-16.01.61-.39 1.23-.76 1.87-1.09.6831182 5.6889066 2.7916208 11.1132273 6.13 15.77z" fill="#dfd64d" data-original="#df4d60" style="" class=""/></g></g></g></svg>
