<svg height="512pt" viewBox="0 0 512 512.003" width="512pt" xmlns="http://www.w3.org/2000/svg"><path d="m25.601562 128.003906h358.398438c9.425781 0 17.066406 7.640625 17.066406 17.066406v341.332032c0 9.425781-7.640625 17.066406-17.066406 17.066406h-358.398438c-9.425781 0-17.066406-7.640625-17.066406-17.066406v-341.332032c0-9.425781 7.640625-17.066406 17.066406-17.066406zm0 0" fill="#f9bc08"/><path d="m25.601562 128.003906h332.800782c9.425781 0 17.066406 7.640625 17.066406 17.066406v341.332032c0 9.425781-7.640625 17.066406-17.066406 17.066406h-332.800782c-9.425781 0-17.066406-7.640625-17.066406-17.066406v-341.332032c0-9.425781 7.640625-17.066406 17.066406-17.066406zm0 0" fill="#ffe63a"/><path d="m469.335938 47.535156c-.011719 21.453125-17.375 38.855469-38.828126 38.910156-1.195312 0-2.472656-.085937-3.667968-.171874l-12.203125-1.109376-312.234375-28.328124c-4.828125-.414063-8.539063-4.457032-8.539063-9.300782 0-4.847656 3.710938-8.890625 8.539063-9.304687l312.234375-28.414063 12.203125-1.109375c10.902344-.980469 21.71875 2.664063 29.800781 10.050781 8.085937 7.382813 12.691406 17.828126 12.695313 28.777344zm0 0" fill="#607d86"/><path d="m443.734375 47.535156c0 14.589844-8.019531 27.21875-29.097656 37.628906l-312.234375-28.328124c-4.828125-.414063-8.539063-4.457032-8.539063-9.300782 0-4.847656 3.710938-8.890625 8.539063-9.304687l312.234375-28.414063c17.132812 4.515625 29.074219 20 29.097656 37.71875zm0 0" fill="#cad3d7"/><path d="m116.96875 224.371094c-3.332031-3.332032-8.734375-3.332032-12.066406 0l-19.566406 19.566406-19.566407-19.566406c-3.351562-3.234375-8.671875-3.1875-11.964843.101562-3.289063 3.292969-3.335938 8.613282-.101563 11.964844l19.566406 19.566406-19.566406 19.566406c-2.21875 2.140626-3.109375 5.316407-2.328125 8.296876.78125 2.984374 3.109375 5.316406 6.09375 6.097656 2.984375.777344 6.15625-.109375 8.300781-2.328125l19.566407-19.566407 19.566406 19.566407c3.347656 3.234375 8.671875 3.1875 11.960937-.105469 3.292969-3.289062 3.339844-8.613281.105469-11.960938l-19.566406-19.566406 19.566406-19.566406c3.332031-3.332031 3.332031-8.734375 0-12.066406zm0 0"/><path d="m227.902344 224.371094c-3.332032-3.332032-8.734375-3.332032-12.066406 0l-19.566407 19.566406-19.566406-19.566406c-3.351563-3.234375-8.671875-3.1875-11.964844.101562-3.289062 3.292969-3.335937 8.613282-.101562 11.964844l19.566406 19.566406-19.566406 19.566406c-2.21875 2.140626-3.109375 5.316407-2.328125 8.296876.78125 2.984374 3.109375 5.316406 6.09375 6.097656 2.984375.777344 6.15625-.109375 8.300781-2.328125l19.566406-19.566407 19.566407 19.566407c3.347656 3.234375 8.667968 3.1875 11.960937-.105469 3.292969-3.289062 3.339844-8.613281.105469-11.960938l-19.566406-19.566406 19.566406-19.566406c3.332031-3.332031 3.332031-8.734375 0-12.066406zm0 0"/><path d="m275.570312 287.636719c3.332032 3.332031 8.730469 3.332031 12.0625 0l19.570313-19.566407 19.566406 19.566407c3.347657 3.234375 8.667969 3.1875 11.960938-.105469 3.292969-3.289062 3.339843-8.613281.105469-11.960938l-19.566407-19.566406 19.566407-19.566406c3.234374-3.351562 3.1875-8.671875-.105469-11.964844-3.292969-3.289062-8.613281-3.335937-11.960938-.101562l-19.566406 19.566406-19.570313-19.566406c-3.347656-3.234375-8.667968-3.1875-11.960937.101562-3.292969 3.292969-3.335937 8.613282-.101563 11.964844l19.566407 19.566406-19.566407 19.566406c-3.332031 3.332032-3.332031 8.734376 0 12.066407zm0 0"/><path d="m116.96875 335.304688c-3.332031-3.332032-8.734375-3.332032-12.066406 0l-19.566406 19.566406-19.566407-19.566406c-3.351562-3.234376-8.671875-3.1875-11.964843.101562-3.289063 3.292969-3.335938 8.613281-.101563 11.964844l19.566406 19.566406-19.566406 19.566406c-2.21875 2.140625-3.109375 5.316406-2.328125 8.296875.78125 2.984375 3.109375 5.316407 6.09375 6.09375 2.984375.78125 6.15625-.105469 8.300781-2.324219l19.566407-19.566406 19.566406 19.566406c3.347656 3.234376 8.671875 3.1875 11.960937-.105468 3.292969-3.289063 3.339844-8.613282.105469-11.960938l-19.566406-19.566406 19.566406-19.566406c3.332031-3.332032 3.332031-8.734375 0-12.066406zm0 0"/><path d="m227.902344 335.304688c-3.332032-3.332032-8.734375-3.332032-12.066406 0l-19.566407 19.566406-19.566406-19.566406c-3.351563-3.234376-8.671875-3.1875-11.964844.101562-3.289062 3.292969-3.335937 8.613281-.101562 11.964844l19.566406 19.566406-19.566406 19.566406c-2.21875 2.140625-3.109375 5.316406-2.328125 8.296875.78125 2.984375 3.109375 5.316407 6.09375 6.09375 2.984375.78125 6.15625-.105469 8.300781-2.324219l19.566406-19.566406 19.566407 19.566406c3.347656 3.234376 8.667968 3.1875 11.960937-.105468 3.292969-3.289063 3.339844-8.613282.105469-11.960938l-19.566406-19.566406 19.566406-19.566406c3.332031-3.332032 3.332031-8.734375 0-12.066406zm0 0"/><path d="m435.203125 38.964844h-51.203125c-4.710938 0-8.53125 3.820312-8.53125 8.535156 0 4.710938 3.820312 8.53125 8.53125 8.53125h51.203125c4.710937 0 8.53125-3.820312 8.53125-8.53125 0-4.714844-3.820313-8.535156-8.53125-8.535156zm0 0"/><path d="m460.800781 196.269531h-17.066406c-18.851563 0-34.132813-15.28125-34.132813-34.132812 0-18.851563 15.28125-34.132813 34.132813-34.132813h25.601563c21.878906-.085937 40.148437-16.710937 42.292968-38.484375 2.144532-21.777343-12.53125-41.644531-33.972656-45.996093-1.035156-12.609376-7.070312-24.28125-16.757812-32.417969s-22.230469-12.066407-34.828126-10.90625l-324.480468 29.5c-9.050782 1.03125-15.890625 8.691406-15.890625 17.804687 0 9.113282 6.839843 16.773438 15.890625 17.804688l324.480468 29.5c1.433594.128906 2.859376.1875 4.265626.1875 21.15625.054687 39.773437-13.949219 45.585937-34.285156 12.410156 3.289062 20.445313 15.277343 18.777344 28.007812-1.667969 12.726562-12.527344 22.238281-25.363281 22.21875h-25.601563c-15.289063-.003906-29.777344 6.835938-39.492187 18.644531-4.796876-6.347656-12.285157-10.085937-20.242188-10.113281h-17.066406v-17.066406c0-4.710938-3.820313-8.53125-8.53125-8.53125-4.714844 0-8.535156 3.820312-8.535156 8.53125v17.066406h-17.066407v-17.066406c0-4.710938-3.820312-8.53125-8.53125-8.53125-4.714843 0-8.535156 3.820312-8.535156 8.53125v17.066406h-17.066406v-17.066406c0-4.710938-3.820313-8.53125-8.53125-8.53125-4.714844 0-8.535157 3.820312-8.535157 8.53125v17.066406h-17.066406v-17.066406c0-4.710938-3.820312-8.53125-8.535156-8.53125-4.710938 0-8.53125 3.820312-8.53125 8.53125v17.066406h-17.066406v-17.066406c0-4.710938-3.820313-8.53125-8.535156-8.53125-4.710938 0-8.53125 3.820312-8.53125 8.53125v17.066406h-17.066407v-17.066406c0-4.710938-3.820312-8.53125-8.535156-8.53125-4.710937 0-8.53125 3.820312-8.53125 8.53125v17.066406h-17.066406v-17.066406c0-4.710938-3.824219-8.53125-8.535157-8.53125-4.714843 0-8.535156 3.820312-8.535156 8.53125v17.066406h-17.066406v-17.066406c0-4.710938-3.820312-8.53125-8.53125-8.53125-4.714844 0-8.535156 3.820312-8.535156 8.53125v17.066406h-17.066406v-17.066406c0-4.710938-3.820313-8.53125-8.53125-8.53125-4.714844 0-8.535157 3.820312-8.535157 8.53125v17.066406h-17.066406v-17.066406c0-4.710938-3.820313-8.53125-8.53125-8.53125-4.714844 0-8.535156 3.820312-8.535156 8.53125v17.066406h-17.066407c-14.136718 0-25.601562 11.460938-25.601562 25.601562v341.332032c0 14.140625 11.464844 25.601562 25.601562 25.601562h358.398438c14.140625 0 25.601562-11.460937 25.601562-25.601562v-20.078125c26.367188-15.222657 42.625-43.339844 42.667969-73.789063v-51.199218c0-4.710938 3.820313-8.53125 8.53125-8.53125 28.265625-.03125 51.171875-22.9375 51.199219-51.203126v-34.132812c-.027344-28.265625-22.933594-51.171875-51.199219-51.199219zm-33.183593-118.460937-324.472657-29.5c-.414062-.039063-.726562-.390625-.726562-.804688 0-.414062.3125-.765625.726562-.804687l324.472657-29.5c.953124-.085938 1.902343-.128907 2.847656-.128907 16.769531.050782 30.335937 13.660157 30.335937 30.429688.003907 8.550781-3.589843 16.710938-9.90625 22.476562-6.3125 5.765626-14.761719 8.609376-23.277343 7.832032zm-35.082032 408.59375c0 4.714844-3.820312 8.535156-8.535156 8.535156h-358.398438c-4.714843 0-8.535156-3.820312-8.535156-8.535156v-341.332032c0-4.714843 3.820313-8.535156 8.535156-8.535156h17.066407v8.535156c0 4.710938 3.820312 8.53125 8.535156 8.53125 4.710937 0 8.53125-3.820312 8.53125-8.53125v-8.535156h17.066406v8.535156c0 4.710938 3.820313 8.53125 8.535157 8.53125 4.710937 0 8.53125-3.820312 8.53125-8.53125v-8.535156h17.066406v8.535156c0 4.710938 3.820312 8.53125 8.535156 8.53125 4.710938 0 8.53125-3.820312 8.53125-8.53125v-8.535156h17.066406v8.535156c0 4.710938 3.820313 8.53125 8.535156 8.53125 4.710938 0 8.535157-3.820312 8.535157-8.53125v-8.535156h17.066406v8.535156c0 4.710938 3.820313 8.53125 8.53125 8.53125 4.714844 0 8.535156-3.820312 8.535156-8.53125v-8.535156h17.066407v8.535156c0 4.710938 3.820312 8.53125 8.53125 8.53125 4.714843 0 8.535156-3.820312 8.535156-8.53125v-8.535156h17.066406v8.535156c0 4.710938 3.820312 8.53125 8.53125 8.53125 4.714844 0 8.535156-3.820312 8.535156-8.53125v-8.535156h17.066406v8.535156c0 4.710938 3.820313 8.53125 8.535157 8.53125 4.710937 0 8.53125-3.820312 8.53125-8.53125v-8.535156h17.066406v8.535156c0 4.710938 3.820313 8.53125 8.535156 8.53125 4.710938 0 8.53125-3.820312 8.53125-8.53125v-8.535156h17.066407v8.535156c0 4.710938 3.820312 8.53125 8.535156 8.53125 4.710937 0 8.53125-3.820312 8.53125-8.53125v-8.535156h17.066406c4.714844 0 8.535156 3.820313 8.535156 8.535156v76.800782h-8.535156c-4.710938 0-8.53125 3.820312-8.53125 8.53125 0 4.714844 3.820312 8.535156 8.53125 8.535156h8.535156v17.066406h-8.535156c-4.710938 0-8.53125 3.820313-8.53125 8.53125 0 4.714844 3.820312 8.535156 8.53125 8.535156h8.535156v17.066407h-8.535156c-4.710938 0-8.53125 3.820312-8.53125 8.53125 0 4.714843 3.820312 8.535156 8.53125 8.535156h8.535156v148.574219c-8.128906 3.316406-16.820312 5.023437-25.601562 5.027344-38.0625-.066407-70.339844-27.984376-75.894532-65.640626l47.785157-47.785156c3.234375-3.347656 3.191406-8.671875-.101563-11.964844-3.292968-3.289062-8.613281-3.335937-11.960937-.101562l-36.625 36.625v-30.601562c0-4.710938-3.824219-8.53125-8.535157-8.53125-4.714843 0-8.535156 3.820312-8.535156 8.53125v42.667968c0 2.285156.179688 4.523438.34375 6.773438-.417968 1.792968-.230468 3.667968.527344 5.34375 6.117188 46.710937 45.886719 81.671875 92.996094 81.75 8.683594 0 17.316406-1.328125 25.601562-3.933594zm102.398438-204.800782c0 18.851563-15.28125 34.136719-34.132813 34.136719-14.136719 0-25.597656 11.460938-25.597656 25.597657v51.199218c-.007813 20.703125-9.425781 40.28125-25.601563 53.207032v-138.539063h17.066407c4.714843 0 8.535156-3.820313 8.535156-8.535156 0-4.710938-3.820313-8.53125-8.535156-8.53125h-17.066407v-17.066407h17.066407c4.714843 0 8.535156-3.820312 8.535156-8.535156 0-4.710937-3.820313-8.53125-8.535156-8.53125h-17.066407v-17.066406h17.066407c4.714843 0 8.535156-3.820312 8.535156-8.535156 0-4.710938-3.820313-8.53125-8.535156-8.53125h-17.066407v-21.675782c9.359376 8.453126 21.519532 13.136719 34.132813 13.140626h17.066406c18.851563 0 34.132813 15.28125 34.132813 34.132812zm0 0"/></svg>